<svg id="logo" xmlns="http://www.w3.org/2000/svg" viewBox="0 0 100 100" style="opacity: 1;">
    <g>
        <path fill="#0a192f" stroke-width="3" stroke-linecap="round" stroke-linejoin="round" d="M 50, 5 L 11, 27 L 11, 72 L 50, 95 L 89, 73 L 89, 28 z" stroke-dasharray="270.1082763671875" style="stroke-dashoffset: 0px;"></path>
        <g id="KH" transform="translate(29.000000, 36.000000)">
            <path d="M 0 27.44 L 0 0 L 5.16 0 L 5.16 14.04 L 15.2 0 L 20.92 0 L 12.8 11.16 L 21.16 27.44 L 15.4 27.44 L 9.44 15.2 L 5.16 20.44 L 5.16 27.44 L 0 27.44 Z M 23.68 27.44 L 23.68 0 L 28.8 0 L 28.8 11.12 L 37.44 11.12 L 37.44 0 L 42.56 0 L 42.56 27.44 L 37.44 27.44 L 37.44 15.68 L 28.8 15.68 L 28.8 27.44 L 23.68 27.44 Z" fill="#f57c00" stroke-dasharray="278.42266845703125" style="stroke-dashoffset: 0px;"></path>
        </g>
    </g>
</svg>